<?xml version="1.0" standalone="no"?>
<!DOCTYPE svg PUBLIC "-//W3C//DTD SVG 20010904//EN"
 "http://www.w3.org/TR/2001/REC-SVG-20010904/DTD/svg10.dtd">
<svg version="1.0" xmlns="http://www.w3.org/2000/svg"
 width="800.000000pt" height="1217.000000pt" viewBox="0 0 800.000000 1217.000000"
 preserveAspectRatio="xMidYMid meet">

<g transform="translate(0.000000,1217.000000) scale(0.100000,-0.100000)"
fill="#000000" stroke="none">
<path d="M3725 11269 c-485 -21 -921 -69 -1365 -151 -191 -35 -400 -100 -400
-124 0 -3 19 -3 43 0 l42 6 -36 -13 c-50 -19 -104 -52 -102 -63 0 -5 4 -111 8
-237 4 -125 9 -242 11 -260 1 -17 3 -44 3 -59 1 -17 7 -28 19 -31 13 -3 10 -6
-10 -11 -22 -7 -28 -14 -28 -36 0 -16 -3 -36 -7 -45 -5 -15 -1 -16 28 -11 27
6 30 5 16 -4 -24 -15 -12 -30 24 -30 36 0 38 -16 4 -32 -15 -7 -24 -17 -21
-25 3 -7 2 -13 -3 -13 -5 0 -16 -18 -25 -40 -18 -46 -19 -51 -8 -48 4 1 27 -8
52 -20 25 -12 38 -22 30 -23 -8 -1 7 -5 34 -10 27 -4 53 -14 57 -21 15 -23 11
-128 -5 -134 -8 -3 -19 -18 -24 -34 -14 -38 7 -66 58 -81 36 -11 55 -29 30
-29 -5 0 -10 -7 -10 -15 0 -18 -31 -35 -65 -35 -15 0 -43 -7 -63 -16 -93 -40
-172 -78 -172 -83 0 -3 -18 -14 -39 -24 -21 -11 -49 -29 -63 -40 -13 -12 -31
-26 -40 -32 -71 -46 -107 -76 -199 -166 -58 -57 -121 -124 -140 -148 -19 -24
-50 -60 -71 -80 -152 -150 -327 -635 -353 -978 l-7 -93 73 0 c46 0 69 -4 60
-9 -9 -6 -12 -20 -9 -40 3 -18 0 -31 -6 -31 -6 0 -4 -5 4 -10 12 -8 12 -10 -5
-10 -17 -1 -18 -2 -4 -10 10 -6 78 -6 180 0 896 52 1632 71 2769 71 1086 0
1890 -21 2849 -73 l224 -12 -6 -745 c-4 -411 -7 -916 -7 -1123 0 -371 0 -378
-20 -378 -11 0 -20 7 -20 15 0 13 -29 15 -197 15 -178 0 -201 2 -239 21 -24
11 -52 35 -64 53 -20 33 -20 45 -20 895 0 947 -3 906 61 952 34 24 36 24 245
21 242 -4 233 -7 213 86 -12 61 -58 120 -113 146 -27 13 -126 20 -502 36 -594
25 -1373 47 -1984 55 -438 6 -1574 -7 -1970 -23 l-165 -7 0 -35 c0 -31 -3 -35
-34 -41 -40 -8 -75 -33 -114 -81 -26 -32 -30 -47 -37 -135 -8 -107 -23 -153
-64 -196 -44 -48 -82 -57 -228 -57 -150 0 -172 8 -224 75 -25 33 -28 47 -36
158 -5 67 -6 132 -3 144 3 11 2 48 -1 80 l-7 60 -101 -4 c-55 -2 -120 -11
-143 -19 -49 -18 -109 -81 -118 -125 -7 -31 -25 -40 -25 -12 0 45 -75 114
-122 112 -12 0 -18 -2 -13 -5 6 -2 8 -57 4 -151 -4 -82 -8 -625 -9 -1208 -1
-583 -6 -1071 -10 -1085 -6 -17 -7 -11 -3 22 3 27 0 54 -7 65 -12 19 -10 -277
10 -1337 11 -581 20 -816 31 -780 5 19 8 12 10 -30 1 -30 3 -66 4 -80 1 -14 4
-47 5 -75 2 -27 7 -57 11 -65 4 -8 12 -69 17 -135 5 -66 13 -128 17 -137 5
-13 2 -18 -9 -18 -12 0 -15 -6 -11 -22 2 -13 6 -43 7 -68 2 -25 10 -50 18 -57
18 -15 6 -16 -38 -4 l-32 10 0 -88 c0 -136 24 -241 81 -354 68 -135 250 -332
366 -398 32 -18 67 -39 78 -46 19 -13 19 -14 -6 -8 -23 6 -27 3 -32 -22 -4
-18 -16 -34 -34 -43 -15 -8 -36 -22 -45 -31 -16 -16 -16 -17 3 -22 10 -3 19
-13 19 -22 0 -9 4 -14 9 -10 6 3 14 -3 20 -12 9 -16 11 -15 20 10 11 28 11 28
31 9 12 -11 40 -28 63 -38 23 -10 48 -24 54 -30 7 -7 32 -15 55 -19 59 -9 97
-27 104 -48 3 -9 9 -15 13 -13 4 3 33 -1 64 -8 35 -8 59 -10 65 -4 14 14 144
-8 154 -25 9 -17 137 -34 147 -19 7 11 151 -7 151 -19 0 -5 33 -9 74 -9 41 0
76 -4 78 -9 4 -12 130 -17 148 -6 17 10 131 6 145 -5 15 -12 131 -24 152 -15
27 11 136 5 153 -9 17 -14 133 -22 151 -10 17 10 142 5 149 -7 9 -13 35 -14
150 -5 64 4 140 3 195 -3 58 -7 93 -7 99 -1 13 13 153 13 161 0 3 -6 37 -10
75 -10 38 0 72 4 75 10 9 15 129 12 143 -2 15 -15 141 -12 157 3 5 5 40 9 77
9 50 0 68 -3 68 -13 0 -11 16 -13 73 -9 39 2 74 8 75 13 5 13 152 11 152 -2 0
-14 131 -9 150 7 18 15 150 25 150 12 0 -14 132 2 150 17 16 14 134 25 145 13
9 -9 149 3 153 13 2 5 32 9 67 9 34 0 74 6 89 13 29 16 146 22 146 8 0 -13
132 -1 150 14 21 18 143 36 151 23 5 -7 25 -6 60 3 30 8 59 13 66 13 7 -1 15
7 18 17 11 34 133 71 161 48 9 -7 14 -8 14 -1 0 6 -5 14 -11 18 -7 4 2 17 23
34 58 49 88 79 88 90 0 5 6 10 14 10 8 0 17 -17 21 -43 5 -27 9 -35 12 -22 9
44 15 51 23 30 8 -18 9 -17 9 8 1 15 -4 27 -9 27 -6 0 -23 12 -38 27 -14 14
-37 32 -49 38 -22 12 -18 16 78 80 231 156 416 397 478 625 23 82 45 236 36
250 -3 5 -23 3 -47 -6 -52 -18 -55 -18 -29 4 12 9 23 27 25 39 14 73 17 111 8
116 -5 4 -6 26 -1 54 4 26 11 138 16 248 l8 200 6 -170 c3 -93 4 309 1 895 -3
586 -8 1067 -11 1070 -24 18 -31 116 -41 510 -6 234 -12 488 -15 565 -3 77 -7
246 -10 375 -11 521 -21 740 -40 885 -8 62 -31 393 -30 440 0 17 -6 33 -15 37
-8 4 15 7 53 7 l67 1 0 34 c0 59 -39 264 -71 375 -53 182 -165 444 -253 591
-59 100 -191 257 -288 343 -47 42 -91 77 -97 77 -6 0 -11 4 -11 9 0 5 -42 36
-92 70 -51 34 -97 65 -103 69 -5 5 -44 26 -85 48 -41 21 -77 41 -80 44 -3 3
-32 18 -65 34 -120 58 -137 82 -90 126 32 30 32 47 -4 85 -28 30 -48 90 -32
99 5 3 6 17 3 31 -3 20 0 25 16 25 11 0 25 6 31 14 7 8 23 17 36 20 14 4 25
11 25 16 0 6 14 10 30 10 54 0 49 57 -8 93 -24 14 -24 17 -7 17 19 1 19 1 1
15 -18 13 -17 14 8 21 34 8 33 27 -1 41 -26 11 -25 11 11 6 34 -5 38 -4 33 11
-4 10 -7 28 -7 41 0 19 -10 29 -42 44 -42 19 -42 19 -9 14 l34 -6 -6 69 c-4
38 -7 173 -7 300 l0 231 -27 13 c-16 7 -55 23 -88 36 -66 25 -63 33 3 10 44
-16 67 -5 31 14 -63 34 -256 79 -519 120 -667 105 -1172 136 -1785 109z m1348
-86 c-7 -2 -19 -2 -25 0 -7 3 -2 5 12 5 14 0 19 -2 13 -5z m80 -10 c-7 -2 -19
-2 -25 0 -7 3 -2 5 12 5 14 0 19 -2 13 -5z m257 -33 c58 -10 94 -19 80 -19
-34 -1 -292 38 -299 45 -7 7 82 -3 219 -26z m-2753 -16 c-3 -3 -12 -4 -19 -1
-8 3 -5 6 6 6 11 1 17 -2 13 -5z m2938 -14 c27 -7 27 -8 5 -8 -14 0 -38 4 -55
8 -27 7 -27 8 -5 8 14 0 39 -4 55 -8z m-3095 -10 c-14 -4 -34 -8 -45 -8 -16 0
-15 2 5 8 14 4 34 8 45 8 16 0 15 -2 -5 -8z m3249 -16 c8 -7 -63 -2 -94 7 -20
5 -9 6 30 2 33 -3 62 -7 64 -9z m-3326 -1 c-7 -2 -19 -2 -25 0 -7 3 -2 5 12 5
14 0 19 -2 13 -5z m3370 -10 c-7 -2 -19 -2 -25 0 -7 3 -2 5 12 5 14 0 19 -2
13 -5z m44 -9 c-3 -3 -12 -4 -19 -1 -8 3 -5 6 6 6 11 1 17 -2 13 -5z m-3662
-34 c-11 -5 -29 -8 -40 -8 -16 0 -15 2 5 8 34 11 60 11 35 0z m-80 -20 c-11
-5 -27 -9 -35 -9 -9 0 -8 4 5 9 11 5 27 9 35 9 9 0 8 -4 -5 -9z m-653 -3267
c23 -21 22 -32 -4 -63 -14 -16 -22 -21 -25 -12 -3 6 -20 12 -39 12 -31 0 -34
3 -34 30 0 28 3 30 35 30 19 0 35 5 35 10 0 15 11 12 32 -7z m1792 -29 c26
-10 18 -25 -9 -18 -24 6 -25 4 -25 -36 0 -40 1 -42 25 -36 28 7 35 -8 9 -18
-35 -14 -54 3 -54 48 0 55 17 74 54 60z m56 -19 c0 -19 5 -25 21 -25 16 0 20
5 16 20 -3 11 -1 23 4 26 5 3 8 -20 8 -53 -1 -32 -4 -48 -6 -35 -6 29 -43 31
-43 2 0 -11 -4 -20 -10 -20 -5 0 -10 25 -10 55 0 30 5 55 10 55 6 0 10 -11 10
-25z m145 -30 c0 -49 -1 -50 -32 -53 l-33 -3 0 49 c0 56 5 64 40 60 23 -3 25
-7 25 -53z m92 39 c2 -6 -7 -10 -19 -10 -19 1 -24 -5 -26 -31 -3 -30 -1 -33
22 -33 14 0 26 -4 26 -10 0 -5 -13 -10 -30 -10 -25 0 -30 4 -35 34 -9 44 9 78
37 74 12 -2 23 -8 25 -14z m98 -39 c0 -48 -1 -50 -29 -53 -33 -4 -46 10 -46
54 0 37 17 56 50 52 23 -3 25 -7 25 -53z m45 10 c0 -38 3 -45 20 -45 11 0 20
-4 20 -10 0 -5 -13 -10 -30 -10 -30 0 -30 1 -30 55 0 30 5 55 10 55 6 0 10
-20 10 -45z m123 -7 c9 -29 14 -54 10 -57 -3 -4 -8 0 -10 7 -5 14 -53 17 -53
2 0 -5 -4 -10 -9 -10 -5 0 -3 20 5 45 24 83 34 85 57 13z m87 42 c0 -5 -7 -10
-15 -10 -11 0 -15 -13 -17 -47 l-2 -48 -3 48 c-3 33 -8 47 -19 47 -7 0 -14 5
-14 10 0 6 16 10 35 10 19 0 35 -4 35 -10z m80 0 c0 -5 -9 -10 -20 -10 -11 0
-20 -7 -20 -15 0 -8 9 -15 21 -15 11 0 18 -4 14 -10 -3 -5 -12 -7 -20 -3 -9 3
-15 -1 -15 -11 0 -9 8 -16 20 -16 11 0 20 -4 20 -10 0 -5 -13 -10 -30 -10 -30
0 -30 1 -30 55 0 54 0 55 30 55 17 0 30 -4 30 -10z m-1330 -51 c0 -46 2 -51
20 -46 11 3 20 2 20 -3 0 -10 -41 -21 -52 -14 -12 7 -10 114 2 114 6 0 10 -23
10 -51z m125 41 c4 -6 -5 -10 -19 -10 -16 0 -26 -6 -26 -15 0 -8 9 -15 20 -15
11 0 20 -4 20 -10 0 -5 -9 -10 -20 -10 -11 0 -20 -4 -20 -10 0 -5 9 -10 19
-10 11 0 23 -4 26 -10 4 -6 -8 -10 -29 -10 l-36 0 0 55 c0 54 0 55 29 55 17 0
33 -4 36 -10z m130 -47 c1 -54 -9 -69 -20 -33 -3 11 -11 20 -16 20 -5 0 -9 -9
-9 -20 0 -11 -4 -20 -10 -20 -5 0 -10 25 -10 56 l0 55 33 -3 c32 -3 32 -4 32
-55z m44 0 c-1 -62 -6 -56 -11 15 -2 23 0 42 4 42 5 0 7 -26 7 -57z m96 47 c4
-6 -5 -10 -19 -10 -23 0 -26 -4 -26 -36 0 -31 3 -36 20 -31 11 3 22 1 25 -4 7
-11 -40 -23 -54 -14 -12 7 -15 88 -4 98 10 11 51 8 58 -3z m35 -10 c0 -13 7
-20 20 -20 13 0 20 7 20 20 0 11 5 20 10 20 6 0 10 -22 10 -49 0 -28 -4 -53
-10 -56 -6 -4 -10 5 -10 19 0 19 -5 26 -20 26 -15 0 -20 -7 -20 -27 0 -14 -3
-23 -7 -19 -11 10 -12 106 -1 106 4 0 8 -9 8 -20z m-776 4 c25 -9 22 -90 -3
-104 -42 -22 -51 -14 -51 50 0 63 9 71 54 54z m111 -49 c0 -48 -1 -50 -29 -53
-33 -4 -46 10 -46 54 0 37 17 56 50 52 23 -3 25 -7 25 -53z m45 9 c0 -38 3
-45 18 -42 12 2 18 15 20 46 2 23 7 40 13 37 13 -9 11 -79 -3 -93 -17 -17 -55
-15 -62 4 -10 25 -7 94 4 94 6 0 10 -21 10 -46z m148 3 c4 -45 -11 -67 -44
-67 -22 0 -24 4 -24 56 l0 55 33 -3 c29 -3 32 -6 35 -41z m-1145 -92 c17 -23
17 -26 1 -50 -17 -26 -29 -31 -38 -17 -3 5 -19 7 -36 4 -29 -4 -30 -3 -30 32
0 34 1 36 35 36 19 0 35 5 35 10 0 17 14 10 33 -15z m1193 -30 c-3 -8 0 -15 7
-15 8 0 9 -3 1 -8 -6 -4 -14 -14 -17 -22 -3 -8 -6 -1 -6 16 -1 17 2 34 6 37
11 12 15 8 9 -8z m-243 -2 c-7 -2 -14 -17 -14 -31 -1 -18 -3 -21 -6 -9 -6 24
3 47 19 46 10 0 10 -2 1 -6z m274 -30 c-3 -10 -5 -4 -5 12 0 17 2 24 5 18 2
-7 2 -21 0 -30z m253 12 c0 -16 -6 -25 -15 -25 -28 0 -18 40 13 49 1 1 2 -10
2 -24z m-655 -7 c6 -20 8 -20 12 -5 2 9 8 17 13 17 4 0 6 -9 3 -20 -4 -15 -13
-19 -38 -18 -23 1 -32 5 -28 15 3 7 9 10 14 7 5 -3 6 2 3 10 -3 9 -2 16 4 16
5 0 13 -10 17 -22z m64 -5 c0 -25 -1 -25 -8 -8 -5 11 -7 23 -4 28 8 14 13 7
12 -20z m101 7 c-21 -13 -6 -22 24 -14 14 3 26 13 26 21 0 22 24 10 28 -13 3
-18 -3 -20 -48 -21 -42 -1 -50 2 -50 17 0 10 6 20 13 23 18 6 24 -3 7 -13z
m97 -17 c-3 -10 -5 -4 -5 12 0 17 2 24 5 18 2 -7 2 -21 0 -30z m20 0 c-3 -10
-5 -4 -5 12 0 17 2 24 5 18 2 -7 2 -21 0 -30z m37 1 c-6 -25 -8 -26 -15 -9
-11 28 -11 37 1 30 6 -3 10 -1 10 6 0 7 2 10 5 7 4 -3 3 -18 -1 -34z m130 20
c9 -23 8 -24 -15 -24 -17 0 -19 3 -10 13 6 8 8 17 4 20 -3 4 -2 7 4 7 6 0 14
-7 17 -16z m36 -15 c0 -18 -18 -9 -23 12 -4 16 -3 18 9 8 8 -6 14 -15 14 -20z
m50 11 c0 -25 -26 -26 -39 -2 -8 15 -5 18 15 20 18 1 24 -3 24 -18z m23 0 c-3
-11 -7 -20 -9 -20 -2 0 -4 9 -4 20 0 11 4 20 9 20 5 0 7 -9 4 -20z m57 9 c0
-5 -4 -7 -10 -4 -5 3 -10 2 -10 -4 0 -5 6 -12 13 -14 7 -4 6 -6 -4 -6 -17 -1
-32 22 -22 33 10 10 33 7 33 -5z m-527 -19 c-3 -11 -7 -20 -9 -20 -2 0 -4 9
-4 20 0 11 4 20 9 20 5 0 7 -9 4 -20z m44 -12 c-3 -7 -5 -2 -5 12 0 14 2 19 5
13 2 -7 2 -19 0 -25z m2762 -694 c2 -2 2 -7 -2 -10 -3 -3 -16 2 -29 11 l-23
17 25 -7 c14 -4 27 -9 29 -11z m-2138 -20 c16 -8 36 -28 44 -44 15 -30 15 -30
-11 -40 -22 -9 -29 -7 -41 10 -20 29 -109 29 -118 0 -9 -30 -1 -36 72 -55 85
-22 113 -49 113 -110 0 -36 -5 -47 -31 -69 -26 -22 -40 -26 -98 -26 -57 0 -71
3 -88 23 -23 24 -39 67 -26 67 4 0 18 3 30 6 16 4 23 0 28 -15 5 -18 14 -21
60 -21 50 0 55 2 61 26 8 33 2 38 -78 59 -84 22 -101 40 -100 101 2 59 29 92
81 96 20 2 45 4 55 5 10 1 32 -5 47 -13z m327 -18 c-3 -29 -6 -31 -43 -32
l-40 0 -3 -142 -3 -142 -29 0 -30 0 0 139 0 140 -42 3 c-32 2 -44 8 -46 21 -9
44 1 48 123 46 l116 -1 -3 -32z m218 -140 c30 -92 54 -170 54 -172 0 -2 -13
-4 -29 -4 -25 0 -31 6 -41 35 l-12 36 -61 -3 c-60 -3 -62 -4 -71 -35 -7 -27
-14 -33 -37 -33 -16 0 -29 3 -29 8 0 4 23 83 52 175 l52 168 34 -3 34 -3 54
-169z m206 76 c25 -51 50 -94 53 -95 4 -1 8 41 9 93 l1 95 28 3 27 3 0 -175 0
-176 -25 0 c-26 0 -57 45 -108 153 -12 26 -25 47 -29 47 -5 0 -8 -45 -8 -100
l0 -100 -30 0 -30 0 0 176 0 175 32 -3 c30 -3 36 -10 80 -96z m389 68 l30 -29
-3 -123 -3 -122 -34 -23 c-28 -19 -47 -23 -112 -23 l-79 0 0 175 0 175 86 0
c81 0 87 -1 115 -30z m294 -140 c30 -94 55 -173 55 -175 0 -3 -13 -5 -29 -5
-25 0 -31 6 -41 35 -11 35 -12 35 -71 35 -58 0 -59 -1 -73 -35 -12 -27 -21
-35 -40 -35 -15 0 -26 6 -26 13 0 7 20 76 44 153 24 76 47 149 51 162 5 17 14
22 40 22 l34 0 56 -170z m284 156 c65 -34 69 -137 7 -187 -15 -13 -18 -20 -9
-30 6 -8 25 -38 42 -66 l30 -53 -34 0 c-32 0 -37 5 -72 65 -59 101 -93 101
-93 -1 l0 -65 -27 3 -28 3 -3 159 c-2 87 -1 165 2 172 7 19 147 19 185 0z
m-2657 -35 c27 -30 28 -35 28 -141 0 -106 -1 -111 -27 -140 -24 -25 -38 -31
-95 -36 l-67 -7 -37 37 -36 36 4 115 c3 128 13 149 79 166 64 15 120 4 151
-30z m146 -103 l3 -138 69 0 70 0 0 -35 0 -35 -105 0 -105 0 0 168 c0 93 3
172 7 176 4 4 19 6 33 4 l25 -3 3 -137z m396 114 c23 -25 27 -39 33 -113 6
-98 -8 -162 -40 -183 -18 -12 -115 -21 -184 -17 -10 1 -13 42 -13 171 l0 170
88 0 c84 0 90 -1 116 -28z m2438 1 c27 -26 28 -29 28 -141 0 -112 0 -114 -29
-143 -28 -28 -34 -29 -115 -29 l-86 0 0 170 0 170 87 0 c81 0 89 -2 115 -27z
m-3318 11 c22 -8 61 -74 50 -84 -23 -20 -53 -21 -64 0 -9 16 -21 20 -60 20
-60 0 -62 -6 -58 -125 l3 -80 55 0 c55 0 55 0 58 33 3 31 2 32 -37 32 -40 0
-41 1 -38 33 l2 32 64 3 c35 2 68 -1 72 -5 4 -4 9 -51 10 -103 l2 -95 -99 -2
c-104 -3 -115 1 -147 47 -13 19 -17 47 -17 125 0 103 8 130 50 162 15 13 126
18 154 7z m18 -521 c39 -35 5 -103 -52 -103 -57 0 -90 62 -53 102 20 23 80 24
105 1z m1022 -20 c3 -10 39 -173 81 -363 42 -190 78 -346 79 -347 1 -1 32 159
70 355 38 196 70 360 73 365 5 8 227 10 235 1 3 -3 0 -33 -8 -66 -8 -33 -25
-113 -38 -177 -70 -338 -198 -936 -202 -943 -3 -4 -59 -8 -124 -8 -104 0 -119
2 -124 18 -3 9 -14 55 -24 102 -38 168 -124 535 -129 550 -3 8 -7 11 -9 5 -4
-11 -66 -282 -116 -510 -17 -77 -36 -144 -42 -150 -6 -6 -59 -9 -127 -7 l-116
3 -11 52 c-47 216 -99 455 -206 944 -20 89 -36 167 -36 172 0 7 42 11 118 11
l118 0 68 -342 c73 -369 77 -384 83 -353 6 30 137 632 148 683 5 21 9 22 120
22 100 0 114 -2 119 -17z m886 -223 l0 -240 185 0 185 0 0 240 0 240 108 0
109 0 6 -172 c4 -95 7 -365 7 -600 l0 -428 -115 0 -115 0 0 243 0 242 -185 -3
-185 -3 0 -239 0 -240 -115 0 -115 0 0 600 0 600 115 0 115 0 0 -240z m1505
120 l0 -115 -250 -2 -250 -2 -3 -120 -3 -121 246 0 245 0 0 -115 0 -115 -242
-2 -243 -3 0 -122 0 -123 253 0 252 0 0 -113 0 -114 -357 -7 c-196 -3 -360 -3
-364 1 -3 5 -9 275 -13 601 l-6 592 368 -2 367 -3 0 -115z m478 -37 c48 -87
97 -176 111 -197 l24 -39 22 39 c12 21 61 109 109 194 l86 155 128 3 c96 2
127 0 127 -10 0 -7 -23 -53 -51 -103 -29 -49 -72 -126 -97 -170 -24 -44 -61
-109 -82 -145 -20 -36 -59 -105 -85 -154 l-48 -88 4 -257 4 -256 -117 -3 -118
-3 0 266 0 265 -131 237 c-167 302 -229 415 -229 420 0 1 58 3 128 3 l128 0
87 -157z m-3978 52 c104 -57 105 -57 105 -88 0 -34 8 -37 -124 38 -101 57
-106 61 -106 93 l0 33 28 -19 c15 -10 59 -36 97 -57z m-25 -60 c24 -13 30 -22
30 -50 0 -57 -76 -89 -112 -47 -30 33 -31 60 -4 87 29 29 46 31 86 10z m279
-179 c35 -31 51 -78 51 -147 0 -59 -2 -63 -44 -105 l-43 -44 -131 0 c-126 0
-131 1 -162 26 -43 37 -60 74 -60 134 0 59 18 106 51 137 22 20 37 23 139 26
143 4 169 0 199 -27z m-2 -367 c40 -38 53 -73 53 -141 0 -64 -11 -92 -54 -134
-17 -16 -38 -19 -156 -22 l-137 -3 -33 27 c-74 63 -82 192 -17 263 35 37 55
41 190 37 118 -3 130 -6 154 -27z m4874 -30 c15 -13 20 -22 12 -27 -6 -4 -13
-22 -15 -41 -2 -29 -7 -34 -30 -37 -26 -2 -28 0 -28 36 0 22 -5 40 -12 43 -9
3 -4 11 12 25 31 26 32 26 61 1z m-2 -193 c14 -15 19 -26 12 -31 -6 -3 -11
-22 -11 -41 0 -31 -2 -34 -30 -34 -28 0 -30 2 -30 40 0 24 -5 40 -12 40 -6 0
-1 11 12 25 29 31 31 31 59 1z m-4830 -132 c2 -2 5 -22 7 -44 l4 -40 -170 0
-170 0 0 -35 c0 -35 0 -35 -45 -35 l-45 0 0 85 0 85 208 -7 c114 -3 209 -7
211 -9z m4835 -66 c13 -14 15 -23 8 -26 -7 -2 -12 -21 -12 -43 0 -37 -2 -39
-30 -39 -28 0 -30 2 -30 40 0 24 -5 40 -12 40 -6 0 -1 11 12 25 29 31 40 31
64 3z m-244 -442 c10 -13 7 -15 -17 -13 -24 2 -28 -2 -31 -27 -4 -35 11 -54
31 -38 8 7 17 9 20 6 12 -12 -4 -24 -33 -24 -25 0 -28 4 -32 41 -5 59 31 91
62 55z m90 4 c0 -5 -11 -10 -25 -10 -36 0 -33 -30 3 -31 27 -1 27 -1 3 -8 -34
-9 -39 -31 -7 -31 14 0 26 -4 26 -10 0 -5 -13 -10 -30 -10 -30 0 -30 1 -30 55
0 54 0 55 30 55 17 0 30 -4 30 -10z m-459 -16 c12 -15 10 -16 -19 -10 -25 6
-32 4 -32 -8 0 -9 11 -16 28 -18 38 -4 44 -44 8 -58 -27 -10 -56 -4 -56 11 0
5 14 6 30 3 23 -5 30 -3 30 9 0 8 -13 17 -30 21 -24 4 -30 11 -30 30 0 36 47
49 71 20z m94 -39 l0 -50 -35 0 c-33 0 -35 2 -38 38 -4 46 12 69 47 65 24 -3
26 -7 26 -53z m45 10 c0 -38 3 -45 20 -45 17 0 20 7 20 47 0 48 12 53 15 5 3
-49 -12 -74 -43 -70 -25 3 -27 7 -30 56 -2 31 1 52 7 52 6 0 11 -20 11 -45z
m148 21 c2 -10 -1 -22 -8 -26 -9 -6 -9 -13 -1 -29 7 -13 8 -21 2 -21 -6 0 -15
9 -21 20 -6 11 -15 20 -20 20 -6 0 -10 -9 -10 -20 0 -11 -4 -20 -10 -20 -5 0
-10 23 -10 51 l0 50 37 -3 c28 -2 39 -8 41 -22z m-688 -47 c0 -37 -4 -58 -10
-54 -5 3 -10 21 -11 38 0 32 0 32 -10 7 -10 -24 -11 -24 -25 -6 -13 19 -14 19
-14 -6 0 -15 -4 -30 -10 -33 -6 -4 -10 15 -10 49 0 59 10 69 33 36 13 -19 14
-19 27 5 21 40 30 29 30 -36z m85 10 c9 -28 14 -53 10 -57 -4 -4 -10 -1 -12 6
-7 18 -53 15 -53 -4 0 -8 -4 -13 -9 -10 -5 4 -3 25 5 51 24 83 36 85 59 14z
m102 35 c3 -9 1 -24 -5 -34 -6 -10 -7 -22 -1 -31 11 -18 11 -29 0 -29 -5 0
-13 9 -16 20 -3 11 -13 20 -21 20 -8 0 -14 -9 -14 -20 0 -11 -4 -20 -8 -20 -5
0 -10 25 -11 55 l-2 55 36 0 c24 0 38 -5 42 -16z m43 -1 c10 -17 10 -17 20 0
18 29 31 19 15 -13 -8 -16 -15 -40 -15 -55 0 -14 -4 -25 -10 -25 -5 0 -10 11
-10 25 0 15 -7 39 -15 55 -16 32 -3 42 15 13z m-900 -3 c0 -5 -9 -10 -20 -10
-14 0 -20 -7 -20 -21 0 -14 5 -19 15 -16 8 4 17 2 20 -3 4 -6 -3 -10 -15 -10
-15 0 -20 -5 -18 -17 2 -11 11 -17 21 -15 9 2 17 -2 17 -8 0 -6 -12 -10 -27
-8 -26 3 -28 7 -31 55 -3 50 -2 52 25 56 15 2 29 5 31 6 1 0 2 -3 2 -9z m87
-6 c2 -7 -6 -10 -22 -7 -37 8 -32 -20 6 -34 20 -8 30 -18 27 -29 -4 -24 -32
-39 -54 -29 -17 8 -17 9 6 13 40 6 46 20 14 32 -36 14 -45 29 -33 53 11 19 50
20 56 1z m338 -14 c0 -17 -7 -26 -25 -30 -15 -3 -27 -15 -31 -30 -9 -31 -10
-27 -14 30 -3 57 0 62 38 58 26 -2 32 -7 32 -28z m92 14 c3 -9 1 -24 -5 -34
-6 -10 -7 -22 -1 -31 11 -18 11 -29 1 -29 -5 0 -14 11 -20 25 -15 32 -32 32
-32 -1 0 -14 -4 -23 -10 -19 -5 3 -10 28 -10 56 l0 49 35 0 c24 0 38 -5 42
-16z m43 -39 c0 -30 -4 -55 -10 -55 -5 0 -10 25 -10 55 0 30 5 55 10 55 6 0
10 -25 10 -55z m-1912 -22 c0 -23 -4 -45 -9 -49 -5 -3 -9 6 -9 20 0 19 -5 26
-20 26 -15 0 -20 -7 -20 -26 0 -14 -4 -23 -10 -19 -5 3 -10 28 -10 56 0 27 5
49 10 49 6 0 10 -9 10 -20 0 -13 7 -20 20 -20 15 0 20 7 20 28 0 20 3 23 9 13
5 -8 9 -34 9 -58z m82 57 c0 -5 -9 -10 -20 -10 -11 0 -20 -7 -20 -15 0 -8 9
-15 20 -15 11 0 20 -4 20 -10 0 -5 -9 -10 -20 -10 -11 0 -20 -7 -20 -15 0 -8
9 -15 20 -15 11 0 20 -4 20 -8 0 -5 -12 -8 -27 -7 -26 1 -28 4 -31 52 -3 50
-2 52 25 56 15 2 29 5 31 6 1 0 2 -3 2 -9z m71 -7 c23 27 26 2 4 -27 -8 -11
-15 -34 -16 -50 l-1 -31 -7 30 c-4 17 -13 40 -19 52 -17 32 -14 52 5 26 l15
-23 19 23z m135 3 c15 -12 17 -18 8 -33 -6 -10 -20 -19 -32 -21 -12 -2 -23
-12 -25 -25 -2 -12 -5 1 -6 29 -1 67 13 80 55 50z m93 -4 c6 -11 6 -24 0 -35
-6 -10 -8 -27 -5 -40 l6 -22 -11 23 c-7 12 -18 22 -25 22 -7 0 -15 -10 -17
-22 -2 -13 -5 3 -6 35 -1 54 0 57 24 57 13 0 29 -8 34 -18z m89 6 c16 -16 16
-80 0 -96 -21 -21 -48 -14 -59 15 -22 59 21 119 59 81z m92 2 c0 -5 -6 -9 -12
-7 -9 1 -15 -16 -19 -48 l-6 -50 -1 48 c-1 26 -6 47 -12 47 -5 0 -10 5 -10 10
0 6 14 10 30 10 17 0 30 -4 30 -10z m53 0 c-13 -5 -23 -16 -23 -25 0 -8 10
-16 23 -16 l22 -2 -22 -4 c-14 -3 -23 -12 -23 -23 0 -11 9 -20 23 -23 19 -4
18 -4 -5 -6 -27 -1 -28 0 -28 54 0 53 1 55 28 54 26 0 26 -1 5 -9z m54 -72
c-2 -18 -4 -6 -4 27 0 33 2 48 4 33 2 -15 2 -42 0 -60z m65 40 l22 -43 7 40
c6 39 6 39 8 -12 0 -29 -3 -53 -7 -53 -5 0 -18 19 -28 42 l-19 43 -6 -45 -6
-45 -1 58 c-1 31 0 57 3 57 2 0 15 -19 27 -42z m105 -40 c-2 -18 -4 -6 -4 27
0 33 2 48 4 33 2 -15 2 -42 0 -60z m93 74 c0 -5 -10 -8 -21 -8 -35 1 -34 -23
1 -35 23 -9 30 -16 28 -33 -2 -16 -11 -22 -35 -24 -18 -2 -33 1 -33 5 0 5 12
9 27 8 34 0 42 22 9 31 -36 9 -52 30 -36 49 13 16 60 21 60 7z m95 -47 c0 -49
-1 -50 -30 -50 -28 0 -30 3 -33 39 -5 54 3 68 35 64 26 -3 28 -6 28 -53z m165
4 c7 -27 9 -53 6 -56 -3 -4 -6 1 -6 10 0 11 -8 17 -25 17 -17 0 -25 -6 -25
-17 0 -9 -3 -14 -6 -10 -10 10 19 107 32 107 7 0 17 -23 24 -51z m73 43 c-6
-4 -13 -30 -16 -57 l-3 -50 -2 52 c-2 40 -6 53 -19 56 -10 3 -2 5 17 6 19 0
30 -3 23 -7z m-1447 -34 l7 -33 9 33 c5 17 13 32 18 32 5 0 14 -15 19 -32 6
-21 10 -26 10 -13 1 23 18 52 25 44 8 -8 -19 -100 -29 -100 -6 0 -11 12 -13
26 -2 14 -7 25 -12 25 -5 0 -10 -11 -12 -25 -4 -34 -20 -36 -28 -5 -18 68 -20
80 -11 80 5 0 13 -15 17 -32z m1254 -12 c0 -38 3 -45 23 -49 16 -3 13 -5 -10
-6 l-33 -1 0 50 c0 28 5 50 10 50 6 0 10 -20 10 -44z m2437 -1148 c-2 -13 -4
-5 -4 17 -1 22 1 32 4 23 2 -10 2 -28 0 -40z m-6250 -75 c-3 -10 -5 -2 -5 17
0 19 2 27 5 18 2 -10 2 -26 0 -35z m6250 -15 c-3 -8 -6 -5 -6 6 -1 11 2 17 5
13 3 -3 4 -12 1 -19z m-451 -204 c-3 -9 -6 -22 -6 -30 0 -27 -18 -14 -22 16
-4 25 -1 30 15 30 13 0 17 -5 13 -16z m34 1 c0 -20 10 -19 26 3 12 15 13 13
14 -18 0 -26 -3 -31 -10 -20 -6 9 -10 10 -10 3 0 -6 -9 -11 -20 -10 -15 1 -20
8 -20 29 0 15 5 28 10 28 6 0 10 -7 10 -15z m-797 -26 c76 -21 94 -66 56 -140
-16 -33 -25 -40 -42 -36 -12 3 -57 11 -99 18 l-77 12 14 28 c20 37 19 49 -4
49 -18 0 -55 -36 -63 -61 -2 -7 -32 -7 -90 1 -48 7 -93 10 -100 8 -7 -3 27
-10 76 -16 49 -6 91 -14 94 -17 3 -3 -20 -54 -51 -114 -32 -60 -57 -114 -57
-120 0 -8 11 -11 27 -9 24 3 35 17 85 113 32 61 59 113 60 117 3 7 187 -19
196 -27 2 -2 -17 -44 -43 -94 -76 -146 -140 -187 -316 -198 -63 -4 -100 -1
-142 11 -96 28 -99 59 -20 217 31 63 57 119 58 124 0 6 -56 17 -125 26 -143
19 -112 25 40 8 98 -11 102 -10 116 10 20 28 97 72 153 87 57 16 203 17 254 3z
m347 -53 c0 -29 3 -74 6 -99 l6 -45 52 99 51 99 88 0 c48 0 87 -3 87 -7 0 -3
-32 -67 -70 -141 -39 -74 -70 -135 -68 -136 2 -1 37 -19 80 -39 80 -39 138
-93 138 -128 0 -69 -183 -134 -470 -169 -103 -13 -719 -26 -709 -16 3 4 44 13
90 21 123 22 316 70 392 99 37 14 67 22 67 18 0 -4 -9 -18 -20 -32 -11 -14
-20 -28 -20 -31 0 -6 181 12 305 31 93 14 191 43 223 65 45 32 16 87 -69 131
l-29 14 -40 -80 -40 -80 -95 0 -95 0 0 103 -1 102 -52 -100 -52 -100 -93 -3
-93 -3 72 138 c40 76 73 139 73 140 4 8 260 -56 352 -87 68 -24 74 -24 74 -6
0 15 -128 54 -295 87 -60 13 -112 24 -114 26 -3 2 15 44 39 93 l44 90 93 0 93
0 0 -54z m-1053 -32 c-3 -3 -12 -4 -19 -1 -8 3 -5 6 6 6 11 1 17 -2 13 -5z"/>
<path d="M3387 7693 c-13 -13 -7 -61 9 -67 21 -8 21 -8 28 10 14 36 -15 80
-37 57z"/>
<path d="M3570 7665 c0 -28 4 -35 20 -35 16 0 20 7 20 35 0 28 -4 35 -20 35
-16 0 -20 -7 -20 -35z"/>
<path d="M3760 7673 c0 -13 5 -23 10 -23 13 0 13 11 0 30 -8 12 -10 11 -10 -7z"/>
<path d="M2840 7675 c0 -8 7 -15 15 -15 8 0 15 7 15 15 0 8 -7 15 -15 15 -8 0
-15 -7 -15 -15z"/>
<path d="M2252 7643 c2 -21 8 -38 13 -38 6 0 11 17 13 38 3 29 0 37 -13 37
-13 0 -16 -8 -13 -37z"/>
<path d="M2347 7673 c-4 -3 -7 -19 -7 -35 0 -21 5 -28 20 -28 16 0 20 7 20 35
0 33 -16 46 -33 28z"/>
<path d="M2540 7670 c0 -5 7 -10 15 -10 8 0 15 5 15 10 0 6 -7 10 -15 10 -8 0
-15 -4 -15 -10z"/>
<path d="M2537 7634 c-9 -10 2 -24 19 -24 8 0 14 7 14 15 0 15 -21 21 -33 9z"/>
<path d="M2770 7510 c0 -5 5 -10 10 -10 6 0 10 5 10 10 0 6 -4 10 -10 10 -5 0
-10 -4 -10 -10z"/>
<path d="M3457 6636 c-9 -29 -17 -56 -17 -59 0 -8 64 -9 72 -2 5 5 -24 101
-34 110 -2 3 -12 -19 -21 -49z"/>
<path d="M4020 6620 l0 -110 55 0 55 0 0 104 c0 116 0 116 -71 116 l-39 0 0
-110z"/>
<path d="M4346 6637 c-9 -30 -16 -58 -16 -61 0 -3 16 -6 35 -6 39 0 40 4 23
64 -17 62 -25 63 -42 3z"/>
<path d="M4614 6721 c-2 -2 -4 -22 -4 -43 l0 -38 55 0 c60 0 72 10 61 54 -5
21 -13 25 -57 28 -28 1 -53 1 -55 -1z"/>
<path d="M1932 6698 c-16 -16 -17 -179 0 -196 16 -16 83 -15 97 2 8 9 11 47 9
107 l-3 94 -45 3 c-26 2 -50 -2 -58 -10z"/>
<path d="M2487 6713 c-4 -3 -7 -53 -7 -110 l0 -104 53 3 52 3 3 99 c2 73 -1
102 -10 108 -16 9 -82 11 -91 1z"/>
<path d="M4920 6613 l0 -113 44 0 c25 0 48 6 55 14 8 9 11 47 9 107 l-3 94
-52 5 -53 6 0 -113z"/>
<path d="M1690 6200 c0 -5 9 -10 20 -10 11 0 20 5 20 10 0 6 -9 10 -20 10 -11
0 -20 -4 -20 -10z"/>
<path d="M1597 6034 c-14 -14 -7 -25 13 -22 12 2 21 8 21 13 0 12 -24 18 -34
9z"/>
<path d="M1642 5818 c-7 -7 -12 -30 -12 -53 0 -23 5 -46 12 -53 8 -8 49 -12
118 -12 69 0 110 4 118 12 7 7 12 30 12 53 0 23 -5 46 -12 53 -8 8 -49 12
-118 12 -69 0 -110 -4 -118 -12z"/>
<path d="M1642 5448 c-7 -7 -12 -30 -12 -53 0 -23 5 -46 12 -53 8 -8 49 -12
118 -12 69 0 110 4 118 12 7 7 12 30 12 53 0 23 -5 46 -12 53 -8 8 -49 12
-118 12 -69 0 -110 -4 -118 -12z"/>
<path d="M6232 4613 c2 -26 8 -38 18 -38 10 0 16 12 18 38 3 32 0 37 -18 37
-18 0 -21 -5 -18 -37z"/>
<path d="M6420 4646 c0 -10 9 -16 21 -16 24 0 21 23 -4 28 -10 2 -17 -3 -17
-12z"/>
<path d="M5840 4613 c0 -13 5 -23 10 -23 13 0 13 11 0 30 -8 12 -10 11 -10 -7z"/>
<path d="M5920 4625 c0 -8 9 -15 20 -15 11 0 20 7 20 15 0 8 -9 15 -20 15 -11
0 -20 -7 -20 -15z"/>
<path d="M5490 4614 c0 -9 7 -14 17 -12 25 5 28 28 4 28 -12 0 -21 -6 -21 -16z"/>
<path d="M5580 4622 c0 -14 6 -19 18 -18 9 2 17 9 17 17 0 7 -8 15 -17 17 -12
2 -18 -3 -18 -16z"/>
<path d="M4010 4600 c0 -23 22 -27 39 -7 13 16 5 27 -21 27 -11 0 -18 -7 -18
-20z"/>
<path d="M4100 4599 c0 -14 5 -19 17 -17 26 5 29 38 4 38 -15 0 -21 -6 -21
-21z"/>
<path d="M4203 4623 c-8 -3 -13 -22 -13 -45 0 -35 2 -39 23 -36 16 2 23 11 25
34 3 32 -14 55 -35 47z"/>
<path d="M4744 4617 c-3 -9 -4 -28 -2 -44 2 -20 8 -28 23 -28 17 0 20 7 20 40
0 30 -4 41 -18 43 -9 2 -20 -3 -23 -11z"/>
<path d="M4930 4613 c0 -6 -3 -18 -6 -27 -4 -11 -1 -16 10 -16 9 0 16 6 16 13
0 16 -20 46 -20 30z"/>
<path d="M1746 7853 c-81 -5 -133 -40 -162 -108 -16 -40 -19 -220 -4 -275 5
-20 26 -51 45 -70 l36 -35 138 0 c136 0 138 0 175 29 64 48 79 98 74 241 -3
110 -6 126 -28 158 -44 64 -79 72 -274 60z"/>
<path d="M6590 7475 c-19 -23 -2 -36 41 -29 55 9 52 -16 -6 -50 -41 -24 -45
-30 -45 -65 0 -38 0 -38 46 -45 73 -10 84 -8 84 13 0 17 -8 20 -47 23 -55 3
-60 16 -15 39 18 9 39 22 47 29 21 17 19 63 -3 83 -23 21 -85 22 -102 2z"/>
<path d="M6768 7419 c-51 -81 -50 -99 2 -99 33 0 40 -3 40 -20 0 -30 33 -25
48 7 15 33 16 53 2 53 -6 0 -10 27 -10 60 0 56 -2 60 -22 60 -17 0 -33 -16
-60 -61z m45 -46 c-3 -7 -11 -13 -19 -13 -11 0 -11 5 -2 25 8 17 14 22 19 14
4 -7 5 -18 2 -26z"/>
<path d="M6897 7373 c-13 -12 -7 -81 8 -93 23 -20 65 -4 65 24 0 23 -27 43
-39 30 -3 -4 0 -9 7 -11 20 -7 14 -33 -8 -33 -11 0 -20 3 -21 8 0 4 -2 15 -4
26 -6 33 6 48 32 41 16 -4 22 -2 18 5 -7 11 -48 14 -58 3z"/>
<path d="M6630 7222 c0 -15 4 -20 16 -15 9 3 12 9 7 12 -4 3 -11 10 -15 15 -5
5 -8 0 -8 -12z"/>
<path d="M6688 7233 c7 -3 16 -2 19 1 4 3 -2 6 -13 5 -11 0 -14 -3 -6 -6z"/>
<path d="M6751 7224 c0 -11 3 -14 6 -6 3 7 2 16 -1 19 -3 4 -6 -2 -5 -13z"/>
<path d="M6780 7230 c0 -5 5 -10 10 -10 6 0 10 5 10 10 0 6 -4 10 -10 10 -5 0
-10 -4 -10 -10z"/>
<path d="M6821 7214 c0 -11 3 -14 6 -6 3 7 2 16 -1 19 -3 4 -6 -2 -5 -13z"/>
<path d="M6862 7210 c0 -14 2 -19 5 -12 2 6 2 18 0 25 -3 6 -5 1 -5 -13z"/>
<path d="M6882 7210 c0 -14 2 -19 5 -12 2 6 2 18 0 25 -3 6 -5 1 -5 -13z"/>
<path d="M6900 7196 c0 -9 5 -16 10 -16 6 0 10 4 10 9 0 6 -4 13 -10 16 -5 3
-10 -1 -10 -9z"/>
<path d="M6560 6967 l0 -56 46 -7 c39 -5 45 -9 42 -28 -3 -18 -9 -21 -50 -19
-52 3 -59 -4 -30 -30 28 -25 87 -22 106 5 35 49 11 103 -49 110 -47 5 -39 33
10 34 29 0 41 5 43 17 3 12 -3 17 -20 17 -13 0 -40 3 -60 6 l-38 7 0 -56z"/>
<path d="M6770 6956 l0 -55 43 -3 c35 -2 43 -7 45 -26 4 -27 -18 -38 -47 -22
-12 6 -28 7 -36 2 -25 -13 5 -44 48 -48 27 -3 42 1 57 16 41 41 12 120 -45
120 -16 0 -25 6 -25 15 0 11 11 15 40 15 33 0 40 3 40 20 0 18 -7 20 -60 20
l-60 0 0 -54z"/>
<path d="M6914 6884 c-11 -45 6 -79 44 -82 30 -3 32 -1 32 27 0 26 -4 31 -22
31 -21 -1 -21 -2 -5 -11 21 -12 13 -29 -14 -29 -15 0 -19 7 -19 34 0 41 12 51
41 35 17 -9 20 -8 17 3 -3 7 -19 14 -36 16 -27 3 -32 -1 -38 -24z"/>
<path d="M6700 6836 c0 -21 5 -26 26 -26 21 0 25 4 22 23 -2 14 -11 23 -25 25
-19 3 -23 -1 -23 -22z"/>
<path d="M6692 6740 c0 -14 2 -19 5 -12 2 6 2 18 0 25 -3 6 -5 1 -5 -13z"/>
<path d="M6767 6753 c-12 -12 -7 -33 8 -33 17 0 19 9 7 28 -5 7 -11 9 -15 5z"/>
<path d="M6810 6750 c0 -5 5 -10 10 -10 6 0 10 5 10 10 0 6 -4 10 -10 10 -5 0
-10 -4 -10 -10z"/>
<path d="M6713 6736 c1 -11 9 -21 17 -23 10 -3 11 -2 4 4 -6 4 -14 15 -17 23
-5 11 -6 9 -4 -4z"/>
<path d="M6862 6726 c7 -8 15 -12 17 -11 5 6 -10 25 -20 25 -5 0 -4 -6 3 -14z"/>
<path d="M6818 6723 c7 -3 16 -2 19 1 4 3 -2 6 -13 5 -11 0 -14 -3 -6 -6z"/>
<path d="M6688 6487 c-50 -83 -49 -97 2 -97 33 0 40 -3 40 -20 0 -32 33 -24
49 12 11 24 11 33 3 36 -8 2 -12 28 -12 68 0 60 -1 64 -22 64 -17 0 -32 -16
-60 -63z m42 -37 c0 -20 -5 -30 -15 -30 -18 0 -18 2 -3 35 15 32 18 32 18 -5z"/>
<path d="M6817 6443 c-4 -3 -7 -26 -7 -49 0 -45 19 -62 54 -48 21 8 22 64 1
64 -8 0 -15 -4 -15 -10 0 -5 5 -10 10 -10 6 0 10 -7 10 -15 0 -9 -10 -15 -26
-15 -23 0 -25 3 -22 38 3 34 5 37 31 35 15 -1 25 2 22 8 -7 10 -48 12 -58 2z"/>
<path d="M6730 6275 c0 -14 2 -25 4 -25 2 0 6 11 8 25 3 14 1 25 -3 25 -5 0
-9 -11 -9 -25z"/>
<path d="M6801 6284 c0 -11 3 -14 6 -6 3 7 2 16 -1 19 -3 4 -6 -2 -5 -13z"/>
<path d="M6826 6285 c-3 -8 -1 -15 4 -15 6 0 10 7 10 15 0 8 -2 15 -4 15 -2 0
-6 -7 -10 -15z"/>
<path d="M6870 6290 c0 -6 7 -18 15 -26 9 -10 15 -11 15 -4 0 6 -7 18 -15 26
-9 10 -15 11 -15 4z"/>
<path d="M6918 6293 c7 -3 16 -2 19 1 4 3 -2 6 -13 5 -11 0 -14 -3 -6 -6z"/>
<path d="M6767 6276 c-4 -10 -3 -15 3 -11 6 3 10 1 10 -6 0 -7 3 -10 6 -6 3 3
2 13 -4 22 -8 16 -9 16 -15 1z"/>
<path d="M6910 6265 c0 -8 4 -15 8 -15 5 0 9 7 9 15 0 8 -4 15 -9 15 -4 0 -8
-7 -8 -15z"/>
<path d="M6681 6204 c0 -11 3 -14 6 -6 3 7 2 16 -1 19 -3 4 -6 -2 -5 -13z"/>
<path d="M6911 6203 c-1 -12 -7 -24 -13 -26 -10 -4 -10 -6 0 -6 15 -1 26 23
19 41 -3 7 -6 3 -6 -9z"/>
<path d="M6648 6193 c7 -3 16 -2 19 1 4 3 -2 6 -13 5 -11 0 -14 -3 -6 -6z"/>
<path d="M6808 6193 c7 -3 16 -2 19 1 4 3 -2 6 -13 5 -11 0 -14 -3 -6 -6z"/>
<path d="M6930 6196 c0 -2 7 -6 15 -10 8 -3 15 -1 15 4 0 6 -7 10 -15 10 -8 0
-15 -2 -15 -4z"/>
<path d="M6620 6000 c0 -17 7 -20 40 -20 22 0 40 -2 40 -5 0 -3 -8 -22 -19
-43 -10 -20 -26 -54 -34 -74 -16 -37 -16 -38 6 -38 18 1 29 17 60 83 52 114
52 117 -28 117 -58 0 -65 -2 -65 -20z"/>
<path d="M6770 6000 c0 -17 7 -20 40 -20 22 0 40 -2 40 -5 0 -3 -16 -37 -35
-75 -19 -38 -35 -72 -35 -75 0 -3 10 -5 23 -5 18 0 29 16 60 84 51 115 51 116
-28 116 -58 0 -65 -2 -65 -20z"/>
<path d="M6805 5760 c3 -5 8 -10 11 -10 2 0 4 5 4 10 0 6 -5 10 -11 10 -5 0
-7 -4 -4 -10z"/>
<path d="M6851 5754 c0 -11 3 -14 6 -6 3 7 2 16 -1 19 -3 4 -6 -2 -5 -13z"/>
<path d="M6708 5753 c-10 -2 -18 -9 -18 -14 0 -6 8 -5 20 1 11 6 20 13 20 15
0 3 -1 4 -2 4 -2 -1 -11 -3 -20 -6z"/>
<path d="M6831 5734 c0 -11 3 -14 6 -6 3 7 2 16 -1 19 -3 4 -6 -2 -5 -13z"/>
<path d="M6872 5735 c-11 -12 -10 -15 3 -15 8 0 15 7 15 15 0 18 -2 18 -18 0z"/>
<path d="M6608 5723 c7 -3 16 -2 19 1 4 3 -2 6 -13 5 -11 0 -14 -3 -6 -6z"/>
<path d="M6658 5723 c7 -3 16 -2 19 1 4 3 -2 6 -13 5 -11 0 -14 -3 -6 -6z"/>
<path d="M6918 5723 c7 -3 16 -2 19 1 4 3 -2 6 -13 5 -11 0 -14 -3 -6 -6z"/>
<path d="M7261 5704 c0 -11 3 -14 6 -6 3 7 2 16 -1 19 -3 4 -6 -2 -5 -13z"/>
<path d="M963 5640 c0 -30 2 -43 4 -27 2 15 2 39 0 55 -2 15 -4 2 -4 -28z"/>
<path d="M7263 5600 c0 -30 2 -43 4 -27 2 15 2 39 0 55 -2 15 -4 2 -4 -28z"/>
<path d="M1013 3165 c0 -27 2 -38 4 -22 2 15 2 37 0 50 -2 12 -4 0 -4 -28z"/>
<path d="M1630 1510 c0 -5 5 -10 11 -10 5 0 7 5 4 10 -3 6 -8 10 -11 10 -2 0
-4 -4 -4 -10z"/>
</g>
</svg>
