<?xml version="1.0" standalone="no"?>
<!DOCTYPE svg PUBLIC "-//W3C//DTD SVG 20010904//EN"
 "http://www.w3.org/TR/2001/REC-SVG-20010904/DTD/svg10.dtd">
<svg version="1.0" xmlns="http://www.w3.org/2000/svg"
 width="213.000000pt" height="237.000000pt" viewBox="0 0 213.000000 237.000000"
 preserveAspectRatio="xMidYMid meet">

<g transform="translate(0.000000,237.000000) scale(0.100000,-0.100000)"
fill="#000000" stroke="none">
<path d="M900 2250 c-36 -5 -81 -14 -100 -19 -19 -6 -47 -11 -62 -11 -45 0
-108 -30 -113 -54 -6 -27 -16 -134 -16 -164 1 -32 32 -73 51 -66 53 21 159 12
168 -14 2 -6 -7 -16 -20 -21 -13 -5 -52 -20 -88 -35 -122 -48 -186 -45 -158 8
24 44 -89 -65 -119 -116 -60 -99 -63 -130 -63 -569 l0 -396 338 -7 c290 -7
616 -3 902 9 41 2 87 4 103 4 l27 1 0 378 c0 402 -6 466 -50 552 -24 46 -106
140 -123 140 -6 0 0 -11 13 -25 21 -22 21 -25 6 -31 -29 -11 -97 4 -181 39
-44 19 -93 37 -108 41 -70 17 16 59 101 49 30 -3 59 -6 65 -7 7 0 13 3 14 7 1
5 9 14 18 21 18 13 18 20 10 126 -4 46 -12 82 -22 92 -15 16 -68 34 -87 29 -5
-1 -32 5 -59 14 -27 9 -55 14 -63 11 -7 -3 -14 -1 -16 5 -4 13 -288 20 -368 9z
m520 -170 c18 -12 2 -12 -25 0 -13 6 -15 9 -5 9 8 0 22 -4 30 -9z m-813 -409
c-2 -10 0 -26 5 -35 11 -19 -15 -56 -39 -56 -18 0 -16 47 3 54 8 3 12 11 9 16
-4 6 -1 17 5 25 17 20 23 19 17 -4z m992 -20 c21 -29 19 -61 -3 -61 -13 0 -36
46 -36 72 0 26 16 22 39 -11z m16 -89 c-10 -10 -16 -12 -13 -7 3 6 8 19 13 30
5 14 9 16 12 7 3 -8 -3 -21 -12 -30z m24 -12 c-13 -16 -24 -28 -27 -26 -6 6
29 56 39 56 5 0 0 -13 -12 -30z m-1051 -12 c0 -16 -4 -26 -9 -23 -5 4 -9 2 -9
-3 0 -17 41 -22 47 -5 5 13 7 13 16 -2 7 -14 11 -15 18 -4 4 7 11 11 14 7 8
-8 -5 -59 -14 -54 -4 3 -7 -4 -7 -15 0 -11 5 -17 11 -15 5 2 9 9 7 15 -1 6 2
11 8 11 6 0 10 -7 10 -16 0 -18 -57 -44 -97 -44 -21 0 -25 -3 -13 -10 12 -7
10 -9 -7 -8 -25 2 -20 21 10 36 21 11 20 11 -4 6 -15 -3 -30 -1 -34 5 -8 14
13 80 33 104 14 15 14 17 0 17 -9 0 -18 6 -21 13 -3 8 3 13 18 13 17 0 22 -6
23 -28z m1048 -35 c-14 -20 -26 -34 -26 -29 0 13 42 78 47 72 3 -2 -7 -22 -21
-43z m-857 -15 c0 -22 -1 -22 -9 -3 -6 14 -9 15 -9 5 -1 -22 18 -40 35 -33 8
3 14 -1 14 -11 0 -18 -29 -18 -43 -1 -6 6 -10 6 -14 -2 -7 -18 -50 -16 -57 2
-4 10 1 15 14 15 11 0 20 -6 21 -12 0 -7 5 -3 11 10 9 17 8 26 -1 35 -10 9
-12 9 -9 -2 2 -8 -5 -17 -15 -19 -11 -2 -16 2 -15 10 4 16 25 26 56 27 17 1
22 -4 21 -21z m51 10 c0 -6 8 -20 17 -30 13 -14 14 -21 5 -30 -9 -9 -12 -7
-13 8 0 19 -1 19 -8 -1 -7 -17 -8 -17 -15 8 -3 15 -11 27 -16 27 -19 0 -10 26
10 27 11 1 20 -3 20 -9z m50 -5 c0 -7 -9 -13 -20 -13 -11 0 -20 6 -20 14 0 9
9 14 20 13 11 -1 20 -7 20 -14z m766 -18 c-15 -23 -15 -27 -1 -41 8 -8 15 -18
15 -21 0 -11 -42 -74 -47 -69 -3 2 2 15 11 28 19 29 11 75 -10 57 -22 -18 -16
-1 12 37 31 40 44 46 20 9z m-736 -25 c0 -9 -10 -16 -23 -18 -16 -1 -23 4 -23
17 0 13 7 18 23 17 13 0 23 -7 23 -16z m710 -61 c-7 -11 -14 -19 -16 -16 -7 7
7 37 17 37 6 0 5 -9 -1 -21z m23 -50 c-10 -17 -24 -36 -32 -42 -12 -10 -13 -9
-6 3 14 24 48 70 52 70 2 0 -4 -14 -14 -31z m-1052 -36 c-12 -20 -14 -14 -5
12 4 9 9 14 11 11 3 -2 0 -13 -6 -23z m1058 6 c-8 -16 -8 -23 0 -28 7 -5 3
-19 -14 -41 -14 -19 -25 -30 -25 -24 0 5 7 18 15 28 8 11 15 25 15 30 0 6 -7
2 -15 -8 -22 -29 -18 -13 6 28 22 39 37 50 18 15z m-1017 -54 c3 -13 2 -22 -2
-20 -4 2 -20 1 -36 -4 -39 -11 -54 -4 -54 23 0 20 6 23 44 24 39 2 44 -1 48
-23z m34 10 c-3 -20 -20 -20 -24 -1 -2 9 3 16 11 16 9 0 14 -7 13 -15z m985
-42 c-5 -10 -17 -27 -26 -38 -16 -19 -17 -19 -3 5 26 46 29 50 34 50 3 0 0 -8
-5 -17z m-1013 -22 c7 -9 11 -11 8 -4 -4 6 -2 14 4 18 6 4 10 -8 10 -29 0 -28
4 -36 18 -36 11 0 13 -3 5 -8 -6 -4 -28 -7 -50 -7 -37 0 -38 1 -44 40 l-6 40
-2 -42 c-1 -36 -4 -43 -21 -43 -17 0 -20 7 -20 38 0 21 2 41 4 43 12 12 82 5
94 -10z m102 5 c18 -23 8 -61 -17 -64 -20 -3 -23 1 -23 31 0 47 16 61 40 33z
m95 4 c3 -6 -4 -10 -17 -11 l-23 0 23 -11 c28 -14 30 -48 3 -48 -11 0 -22 4
-25 9 -4 5 3 7 14 4 11 -3 20 0 20 6 0 6 -6 11 -14 11 -19 0 -29 17 -22 35 6
17 32 20 41 5z m58 -1 c-7 -7 -9 -25 -6 -40 3 -18 1 -29 -6 -29 -6 0 -11 14
-11 30 0 17 -4 30 -10 30 -5 0 -10 5 -10 10 0 6 12 10 27 10 20 0 24 -3 16
-11z m63 -28 c10 -37 10 -38 -8 -28 -15 10 -21 9 -28 -3 -13 -20 -12 0 1 39
14 41 23 39 35 -8z m290 -5 c1 -33 -1 -37 -11 -23 -16 22 -22 21 -28 0 -3 -10
-5 1 -6 25 -1 40 1 43 22 40 18 -2 22 -10 23 -42z m72 7 c-2 -31 -7 -39 -25
-41 -21 -3 -23 1 -23 37 0 37 2 41 26 41 23 0 25 -3 22 -37z m-148 17 c0 -5
-2 -10 -4 -10 -3 0 -8 5 -11 10 -3 6 -1 10 4 10 6 0 11 -4 11 -10z m485 -32
c-1 -18 -6 -42 -11 -52 -5 -14 -4 -17 5 -12 8 6 7 -2 -3 -23 -9 -17 -19 -31
-22 -31 -2 0 0 9 6 19 14 28 12 36 -5 21 -10 -9 -15 -9 -15 -1 0 6 4 11 8 11
9 0 32 44 32 58 -1 4 -10 -4 -20 -17 -11 -13 -20 -20 -20 -17 0 6 43 76 47 76
1 0 0 -15 -2 -32z m-475 -4 c0 -8 -5 -12 -10 -9 -6 4 -8 11 -5 16 9 14 15 11
15 -7z m-593 -69 c0 -8 -4 -12 -9 -9 -4 3 -8 1 -8 -5 0 -5 6 -12 13 -14 7 -3
5 -6 -5 -6 -26 -1 -22 -19 5 -23 18 -2 22 -9 22 -38 0 -32 -3 -35 -33 -38
l-32 -3 2 68 c1 37 3 71 5 76 7 13 40 7 40 -8z m77 -10 c2 -11 8 -41 11 -67 7
-47 25 -67 25 -28 0 10 5 42 11 70 9 42 14 50 34 50 20 0 25 -9 42 -82 l19
-83 15 80 c13 76 15 80 42 83 33 4 33 9 -2 -148 l-27 -125 -29 0 c-29 0 -30 2
-44 75 l-15 75 -9 -40 c-25 -110 -27 -115 -51 -115 -21 0 -25 7 -39 83 -8 45
-18 100 -22 122 -3 22 -8 48 -11 57 -4 14 0 17 20 16 16 -2 27 -10 30 -23z
m306 -36 l0 -60 43 3 42 3 3 58 c3 53 5 57 27 57 l25 0 0 -140 0 -140 -25 0
c-24 0 -25 3 -25 55 l0 55 -45 0 -45 0 0 -55 c0 -52 -1 -55 -25 -55 l-25 0 0
140 0 140 25 0 c24 0 25 -3 25 -61z m350 31 c0 -30 -1 -30 -55 -30 -53 0 -55
-1 -55 -27 0 -28 1 -28 55 -25 l55 4 0 -31 c0 -31 0 -31 -55 -31 -55 0 -55 0
-55 -31 l0 -31 54 4 c48 4 55 2 60 -15 3 -11 3 -24 0 -29 -3 -4 -40 -8 -83 -8
-93 0 -86 -12 -90 163 l-2 117 85 0 86 0 0 -30z m103 -17 l24 -47 21 47 c15
34 27 47 41 47 29 0 26 -20 -9 -90 -24 -48 -30 -72 -30 -125 0 -57 -2 -65 -19
-65 -24 0 -31 19 -31 81 0 37 -9 68 -35 119 -19 38 -35 72 -35 75 0 3 11 5 25
5 19 0 30 -10 48 -47z m219 -35 c-7 -7 -12 -8 -12 -2 0 14 12 26 19 19 2 -3
-1 -11 -7 -17z m6 -28 c-7 -10 -14 -17 -17 -15 -4 4 18 35 25 35 2 0 -1 -9 -8
-20z m-1037 -62 c1 -7 0 -17 -1 -23 -1 -5 -2 -25 -2 -42 0 -27 -4 -33 -22 -33
-12 0 -27 -5 -33 -11 -8 -8 -11 8 -11 55 l-1 66 35 0 c20 0 34 -5 35 -12z"/>
<path d="M1585 1630 c3 -5 8 -10 11 -10 2 0 4 5 4 10 0 6 -5 10 -11 10 -5 0
-7 -4 -4 -10z"/>
<path d="M608 1413 c7 -3 16 -2 19 1 4 3 -2 6 -13 5 -11 0 -14 -3 -6 -6z"/>
<path d="M607 1170 c3 -11 7 -20 9 -20 2 0 4 9 4 20 0 11 -4 20 -9 20 -5 0 -7
-9 -4 -20z"/>
<path d="M550 1160 c0 -5 5 -10 11 -10 5 0 7 5 4 10 -3 6 -8 10 -11 10 -2 0
-4 -4 -4 -10z"/>
<path d="M710 1175 c0 -14 5 -25 10 -25 6 0 10 11 10 25 0 14 -4 25 -10 25 -5
0 -10 -11 -10 -25z"/>
<path d="M1210 1200 c0 -5 7 -10 15 -10 8 0 15 5 15 10 0 6 -7 10 -15 10 -8 0
-15 -4 -15 -10z"/>
<path d="M1280 1186 c0 -17 5 -26 16 -26 10 0 14 7 12 22 -5 32 -28 35 -28 4z"/>
<path d="M560 1001 c0 -5 7 -11 15 -15 9 -3 15 0 15 9 0 8 -7 15 -15 15 -8 0
-15 -4 -15 -9z"/>
<path d="M556 914 c-4 -9 1 -14 14 -14 23 0 27 15 6 23 -8 3 -17 -1 -20 -9z"/>
<path d="M993 753 c9 -2 23 -2 30 0 6 3 -1 5 -18 5 -16 0 -22 -2 -12 -5z"/>
<path d="M1053 753 c9 -2 23 -2 30 0 6 3 -1 5 -18 5 -16 0 -22 -2 -12 -5z"/>
<path d="M722 710 c0 -14 2 -19 5 -12 2 6 2 18 0 25 -3 6 -5 1 -5 -13z"/>
<path d="M870 719 c0 -5 6 -7 13 -3 10 6 10 4 0 -7 -7 -7 -13 -23 -13 -36 0
-17 6 -23 23 -23 21 1 22 1 3 15 -11 8 -15 15 -10 15 5 0 11 11 12 25 1 16 -3
25 -13 25 -8 0 -15 -5 -15 -11z"/>
<path d="M911 711 c-8 -14 -7 -20 4 -25 11 -4 15 2 15 19 0 30 -6 32 -19 6z"/>
<path d="M1130 715 c0 -8 6 -15 13 -15 7 0 8 -3 2 -8 -5 -4 -11 -15 -13 -24
-2 -14 4 -18 33 -18 20 0 34 4 30 9 -3 6 -14 8 -25 6 -11 -2 -20 0 -20 6 0 5
19 9 42 9 l41 0 -22 19 c-16 14 -18 21 -9 24 8 4 7 6 -4 6 -20 1 -24 -25 -5
-32 7 -3 4 -6 -6 -6 -24 -1 -52 25 -34 32 7 3 5 6 -5 6 -10 1 -18 -6 -18 -14z"/>
<path d="M1498 723 c6 -2 18 -2 25 0 6 3 1 5 -13 5 -14 0 -19 -2 -12 -5z"/>
<path d="M690 664 c0 -8 5 -12 10 -9 6 4 8 11 5 16 -9 14 -15 11 -15 -7z"/>
<path d="M950 660 c0 -5 5 -10 10 -10 6 0 10 5 10 10 0 6 -4 10 -10 10 -5 0
-10 -4 -10 -10z"/>
<path d="M1423 652 c22 -24 21 -39 0 -45 -10 -3 22 -5 70 -6 70 -1 89 2 93 14
4 8 1 22 -5 29 -9 11 -9 15 1 19 7 3 -29 6 -81 6 -91 1 -93 0 -78 -17z"/>
<path d="M1401 634 c0 -11 3 -14 6 -6 3 7 2 16 -1 19 -3 4 -6 -2 -5 -13z"/>
<path d="M666 632 c-3 -5 1 -9 9 -9 8 0 12 4 9 9 -3 4 -7 8 -9 8 -2 0 -6 -4
-9 -8z"/>
<path d="M936 623 c-4 -4 -19 -9 -34 -11 -40 -5 -40 -12 1 -12 20 0 39 5 42
11 8 12 1 22 -9 12z"/>
<path d="M967 616 c-8 -21 26 -22 43 -1 8 9 9 15 2 15 -6 0 -14 -5 -18 -11 -5
-8 -9 -8 -14 1 -5 8 -9 7 -13 -4z"/>
<path d="M1133 613 c0 -7 7 -13 14 -13 8 0 12 4 9 9 -4 5 0 11 6 14 7 3 4 5
-8 4 -11 -1 -21 -7 -21 -14z"/>
<path d="M1184 621 c4 -5 0 -12 -6 -14 -8 -3 -6 -6 5 -6 9 -1 17 5 17 12 0 8
4 7 10 -3 8 -13 10 -12 10 3 0 11 -8 17 -21 17 -11 0 -18 -4 -15 -9z"/>
<path d="M1235 620 c-8 -13 -1 -24 14 -19 6 3 7 10 2 18 -6 10 -10 10 -16 1z"/>
<path d="M1278 623 c6 -2 18 -2 25 0 6 3 1 5 -13 5 -14 0 -19 -2 -12 -5z"/>
<path d="M665 530 c-3 -5 -1 -10 4 -10 6 0 11 5 11 10 0 6 -2 10 -4 10 -3 0
-8 -4 -11 -10z"/>
<path d="M760 471 c0 -6 4 -13 10 -16 6 -3 7 1 4 9 -7 18 -14 21 -14 7z"/>
<path d="M795 470 c3 -5 8 -10 11 -10 2 0 4 5 4 10 0 6 -5 10 -11 10 -5 0 -7
-4 -4 -10z"/>
<path d="M1103 473 c-19 -7 -16 -20 7 -26 15 -4 20 0 20 14 0 19 -5 21 -27 12z"/>
<path d="M1141 464 c0 -11 3 -14 6 -6 3 7 2 16 -1 19 -3 4 -6 -2 -5 -13z"/>
<path d="M1171 471 c-11 -7 -11 -10 0 -17 7 -4 14 -3 17 4 2 7 8 10 13 6 5 -3
9 0 9 5 0 13 -20 14 -39 2z"/>
<path d="M1227 466 c-5 -12 0 -16 18 -16 16 0 25 6 25 15 0 8 -4 15 -10 15 -5
0 -10 -6 -10 -12 0 -10 -2 -10 -9 0 -7 11 -9 11 -14 -2z"/>
<path d="M1292 465 c-11 -12 -10 -15 3 -15 8 0 15 7 15 15 0 18 -2 18 -18 0z"/>
<path d="M1340 469 c0 -5 -4 -7 -10 -4 -5 3 -10 1 -10 -4 0 -6 7 -11 15 -11 8
0 15 7 15 15 0 8 -2 15 -5 15 -3 0 -5 -5 -5 -11z"/>
<path d="M825 460 c-4 -6 3 -10 14 -10 25 0 27 6 6 13 -8 4 -17 2 -20 -3z"/>
<path d="M940 463 c0 -5 16 -8 35 -8 19 0 35 3 35 7 0 4 -16 8 -35 8 -19 0
-35 -3 -35 -7z"/>
<path d="M1025 460 c3 -5 10 -10 16 -10 5 0 9 5 9 10 0 6 -7 10 -16 10 -8 0
-12 -4 -9 -10z"/>
<path d="M380 399 c0 -58 51 -124 115 -150 17 -7 34 -19 38 -26 21 -34 208
-53 519 -53 331 0 554 22 556 54 0 5 17 18 38 30 53 30 95 86 101 136 l6 43
-34 -7 c-123 -25 -226 -30 -644 -30 -424 -1 -508 3 -662 30 -32 6 -33 5 -33
-27z"/>
<path d="M1158 423 c7 -3 16 -2 19 1 4 3 -2 6 -13 5 -11 0 -14 -3 -6 -6z"/>
</g>
</svg>
