<?xml version="1.0" standalone="no"?>
<!DOCTYPE svg PUBLIC "-//W3C//DTD SVG 20010904//EN"
 "http://www.w3.org/TR/2001/REC-SVG-20010904/DTD/svg10.dtd">
<svg version="1.0" xmlns="http://www.w3.org/2000/svg"
 width="521.000000pt" height="237.000000pt" viewBox="0 0 521.000000 237.000000"
 preserveAspectRatio="xMidYMid meet">

<g transform="translate(0.000000,237.000000) scale(0.100000,-0.100000)"
fill="#000000" stroke="none">
<path d="M864 2349 c-10 -17 13 -36 27 -22 12 12 4 33 -11 33 -5 0 -12 -5 -16
-11z"/>
<path d="M3791 886 c-8 -10 -8 -16 2 -24 17 -14 42 2 34 22 -8 20 -21 20 -36
2z"/>
<path d="M4083 884 c-7 -20 17 -37 34 -23 15 13 6 39 -13 39 -8 0 -17 -7 -21
-16z"/>
<path d="M3460 815 c0 -31 -3 -35 -25 -35 -14 0 -25 -4 -25 -10 0 -5 11 -10
25 -10 25 0 25 0 25 -93 0 -106 11 -127 68 -127 44 0 43 28 0 32 l-33 3 0 90
0 90 33 3 c43 4 41 22 -3 22 -33 0 -35 2 -35 35 0 24 -5 35 -15 35 -10 0 -15
-11 -15 -35z"/>
<path d="M3930 815 c0 -31 -3 -35 -25 -35 -31 0 -33 -17 -2 -22 21 -3 22 -9
27 -101 5 -107 11 -117 68 -117 21 0 32 5 32 14 0 9 -12 16 -32 18 l-33 3 -3
93 -3 92 36 0 c19 0 35 5 35 10 0 6 -16 10 -35 10 -33 0 -35 2 -35 35 0 24 -5
35 -15 35 -10 0 -15 -11 -15 -35z"/>
<path d="M1561 777 c-41 -14 -58 -44 -20 -33 64 18 90 19 109 1 36 -33 26 -52
-32 -59 -84 -11 -108 -29 -108 -83 0 -22 7 -37 22 -47 29 -20 87 -20 115 -1
14 10 24 12 28 5 17 -28 25 -1 25 83 0 80 -3 96 -20 115 -12 12 -26 22 -33 22
-7 0 -21 2 -32 5 -11 2 -35 -1 -54 -8z m109 -142 c0 -34 -33 -65 -69 -65 -46
0 -61 10 -61 40 0 33 27 48 88 49 38 1 42 -1 42 -24z"/>
<path d="M1825 783 c-33 -8 -55 -34 -55 -64 0 -31 25 -53 75 -65 34 -8 65 -31
65 -49 0 -37 -77 -50 -110 -20 -18 16 -40 13 -40 -5 0 -16 57 -40 95 -40 25 0
43 8 60 25 47 47 23 92 -62 120 -37 11 -53 22 -53 34 0 40 57 56 92 24 12 -11
22 -13 28 -7 23 23 -50 58 -95 47z"/>
<path d="M2063 775 c-38 -16 -73 -68 -73 -108 0 -42 24 -91 55 -111 37 -24
118 -18 148 12 28 28 14 40 -22 19 -34 -20 -89 -22 -113 -3 -20 14 -40 61 -31
70 4 3 48 6 100 6 l93 0 0 28 c0 37 -25 71 -66 88 -41 17 -50 17 -91 -1z m102
-40 c46 -45 35 -55 -60 -55 -54 0 -85 4 -85 11 0 6 13 24 29 40 38 37 82 39
116 4z"/>
<path d="M2354 776 c-45 -20 -74 -62 -74 -108 0 -77 46 -128 115 -128 40 0
105 31 105 50 0 14 -22 12 -44 -5 -20 -15 -72 -20 -101 -9 -16 6 -45 54 -45
74 0 6 37 10 100 10 94 0 100 1 100 20 0 37 -30 81 -65 96 -42 17 -51 17 -91
0z m100 -42 c45 -46 36 -54 -59 -54 -95 0 -102 6 -58 52 35 37 81 38 117 2z"/>
<path d="M2643 770 c-27 -16 -33 -17 -33 -5 0 8 -7 15 -15 15 -12 0 -15 -19
-15 -115 0 -96 3 -115 15 -115 12 0 15 14 15 70 0 80 12 113 47 129 69 31 93
2 93 -112 0 -71 3 -87 15 -87 12 0 15 17 15 91 0 50 -5 99 -10 109 -6 11 -27
24 -48 30 -47 13 -41 13 -79 -10z"/>
<path d="M2950 783 c-8 -3 -23 -12 -32 -21 -16 -14 -18 -13 -18 1 0 10 -8 17
-17 17 -16 0 -18 -11 -15 -115 3 -92 6 -115 18 -115 11 0 14 16 14 74 0 90 4
103 41 121 72 38 99 6 99 -112 0 -67 3 -83 15 -83 12 0 15 17 15 89 0 79 -3
93 -22 115 -23 25 -71 39 -98 29z"/>
<path d="M3671 765 c-30 -26 -31 -26 -31 -6 0 12 -6 21 -15 21 -12 0 -15 -19
-15 -115 0 -108 1 -115 20 -115 18 0 20 7 20 84 0 79 2 86 26 105 15 12 35 21
46 21 11 0 18 5 16 13 -8 22 -35 19 -67 -8z"/>
<path d="M4285 783 c-97 -19 -120 -164 -36 -220 53 -36 111 -32 155 11 31 29
36 39 36 81 0 60 -24 100 -72 120 -38 15 -46 16 -83 8z m94 -49 c26 -22 31
-33 31 -70 0 -61 -32 -94 -90 -94 -77 0 -115 73 -78 146 23 48 91 57 137 18z"/>
<path d="M4600 783 c-8 -3 -25 -15 -37 -26 l-23 -20 0 21 c0 13 -6 22 -15 22
-12 0 -15 -19 -15 -115 0 -108 1 -115 20 -115 18 0 20 7 20 80 0 73 3 83 25
105 27 28 62 32 91 11 16 -12 20 -29 22 -105 3 -73 7 -91 19 -91 12 0 14 16
11 95 -2 79 -6 98 -23 114 -22 21 -71 33 -95 24z"/>
<path d="M1250 772 c0 -4 20 -59 45 -120 l45 -113 -19 -44 c-16 -36 -25 -45
-45 -45 -16 0 -26 -6 -26 -15 0 -21 43 -19 68 3 16 13 142 312 142 336 0 3 -6
6 -14 6 -8 0 -29 -38 -51 -95 -20 -52 -38 -95 -40 -95 -2 0 -20 43 -40 95 -22
57 -43 95 -51 95 -8 0 -14 -4 -14 -8z"/>
<path d="M3150 701 c0 -85 11 -127 38 -147 26 -20 86 -17 116 7 21 17 26 18
26 5 0 -9 7 -16 15 -16 12 0 15 19 15 115 0 90 -3 115 -14 115 -9 0 -15 -22
-19 -81 -6 -99 -29 -132 -86 -127 -47 4 -61 33 -61 131 0 62 -3 77 -15 77 -12
0 -15 -15 -15 -79z"/>
<path d="M3790 665 c0 -96 3 -115 15 -115 12 0 15 19 15 115 0 96 -3 115 -15
115 -12 0 -15 -19 -15 -115z"/>
<path d="M4090 665 c0 -96 3 -115 15 -115 12 0 15 19 15 115 0 96 -3 115 -15
115 -12 0 -15 -19 -15 -115z"/>
</g>
</svg>
